<mxfile host="app.diagrams.net" modified="2023-12-21T09:18:45.688Z" agent="Mozilla/5.0 (Macintosh; Intel Mac OS X 10.15; rv:120.0) Gecko/20100101 Firefox/120.0" version="22.1.11" etag="syeifjge_7PlH1nBfQIb" type="github">
  <diagram name="Pagina-1" id="Y8hZLzQplWYDVuOa4qmt">
    <mxGraphModel>
      <root>
        <mxCell id="0" />
        <mxCell id="1" parent="0" />
      </root>
    </mxGraphModel>
  </diagram>
</mxfile>
